<svg width="20" height="19" viewBox="0 0 20 19" fill="none" xmlns="http://www.w3.org/2000/svg">
<path d="M16 15.2C16.5304 15.2 17.0391 15.4002 17.4142 15.7565C17.7893 16.1128 18 16.5961 18 17.1C18 17.6039 17.7893 18.0872 17.4142 18.4435C17.0391 18.7998 16.5304 19 16 19C15.4696 19 14.9609 18.7998 14.5858 18.4435C14.2107 18.0872 14 17.6039 14 17.1C14 16.0455 14.89 15.2 16 15.2ZM0 0H3.27L4.21 1.9H19C19.2652 1.9 19.5196 2.00009 19.7071 2.17825C19.8946 2.35641 20 2.59804 20 2.85C20 3.0115 19.95 3.173 19.88 3.325L16.3 9.4715C15.96 10.051 15.3 10.45 14.55 10.45H7.1L6.2 11.9985L6.17 12.1125C6.17 12.1755 6.19634 12.2359 6.24322 12.2804C6.29011 12.325 6.3537 12.35 6.42 12.35H18V14.25H6C5.46957 14.25 4.96086 14.0498 4.58579 13.6935C4.21071 13.3372 4 12.8539 4 12.35C4 12.0175 4.09 11.704 4.24 11.438L5.6 9.1105L2 1.9H0V0ZM6 15.2C6.53043 15.2 7.03914 15.4002 7.41421 15.7565C7.78929 16.1128 8 16.5961 8 17.1C8 17.6039 7.78929 18.0872 7.41421 18.4435C7.03914 18.7998 6.53043 19 6 19C5.46957 19 4.96086 18.7998 4.58579 18.4435C4.21071 18.0872 4 17.6039 4 17.1C4 16.0455 4.89 15.2 6 15.2ZM15 8.55L17.78 3.8H5.14L7.5 8.55H15Z" fill="black"/>
</svg>
