<svg width="155" height="47" viewBox="0 0 155 47" fill="none" xmlns="http://www.w3.org/2000/svg">
<path d="M1.07288e-06 46.208V37.568C1.07288e-06 36.8427 1.07288e-06 36.3947 1.07288e-06 36.224C1.07288e-06 36.0107 1.07288e-06 35.8613 1.07288e-06 35.776C1.07288e-06 35.6907 1.07288e-06 35.52 1.07288e-06 35.264V35.2C1.07288e-06 34.9013 1.07288e-06 34.7307 1.07288e-06 34.688C1.07288e-06 34.6027 1.07288e-06 34.4533 1.07288e-06 34.24C1.07288e-06 33.984 1.07288e-06 33.5147 1.07288e-06 32.832V29.568C1.07288e-06 28.8427 1.07288e-06 28.3947 1.07288e-06 28.224C1.07288e-06 28.0107 1.07288e-06 27.8613 1.07288e-06 27.776C1.07288e-06 27.6907 1.07288e-06 27.52 1.07288e-06 27.264V27.2C1.07288e-06 26.9013 1.07288e-06 26.7307 1.07288e-06 26.688C1.07288e-06 26.6027 1.07288e-06 26.4533 1.07288e-06 26.24C1.07288e-06 25.984 1.07288e-06 25.5147 1.07288e-06 24.832V18.432C1.62133 18.432 2.752 18.048 3.392 17.28C4.032 16.512 4.352 15.488 4.352 14.208V10.112C4.352 8.832 4.032 7.744 3.392 6.848C2.752 5.952 1.62133 5.504 1.07288e-06 5.504V0.383999H18.752V5.504C17.1733 5.504 16.064 5.952 15.424 6.848C14.784 7.744 14.464 8.832 14.464 10.112V18.112H23.168C24.7893 18.112 25.8987 17.792 26.496 17.152C27.136 16.4693 27.456 15.488 27.456 14.208V11.392H33.536V24.832C33.536 25.5147 33.536 25.984 33.536 26.24C33.536 26.4533 33.536 26.6027 33.536 26.688C33.536 26.7307 33.536 26.9013 33.536 27.2V27.264C33.536 27.52 33.536 27.6907 33.536 27.776C33.536 27.8613 33.536 28.0107 33.536 28.224C33.536 28.3947 33.536 28.8427 33.536 29.568V32.832C33.536 33.5147 33.536 33.984 33.536 34.24C33.536 34.4533 33.536 34.6027 33.536 34.688C33.536 34.7307 33.536 34.9013 33.536 35.2V35.264C33.536 35.52 33.536 35.6907 33.536 35.776C33.536 35.8613 33.536 36.0107 33.536 36.224C33.536 36.3947 33.536 36.8427 33.536 37.568V46.208H1.07288e-06ZM49.471 46.592C46.4843 46.592 43.903 45.76 41.727 44.096C39.5937 42.3893 38.2283 40.2133 37.631 37.568C37.5883 37.3547 37.5457 37.12 37.503 36.864C37.4603 36.5653 37.4177 36.288 37.375 36.032C37.375 35.7333 37.375 35.4987 37.375 35.328V35.264C37.375 34.9653 37.375 34.7947 37.375 34.752C37.375 34.6667 37.375 34.5173 37.375 34.304C37.375 34.048 37.375 33.5573 37.375 32.832V29.568C37.375 28.8427 37.375 28.3947 37.375 28.224C37.375 28.0107 37.375 27.8613 37.375 27.776C37.375 27.6907 37.375 27.52 37.375 27.264V27.2C37.375 26.9013 37.375 26.7307 37.375 26.688C37.375 26.6027 37.375 26.4533 37.375 26.24C37.375 25.984 37.375 25.5147 37.375 24.832V11.904C37.375 9.64266 37.887 7.616 38.911 5.824C39.9777 4.032 41.4283 2.624 43.263 1.6C45.0977 0.53333 47.167 -3.8147e-06 49.471 -3.8147e-06H62.143C64.4897 -3.8147e-06 66.559 0.511997 68.351 1.536C70.1857 2.56 71.615 3.968 72.639 5.76C73.7057 7.552 74.239 9.6 74.239 11.904V24.832C74.239 25.5147 74.239 25.984 74.239 26.24C74.239 26.4533 74.239 26.6027 74.239 26.688C74.239 26.7307 74.239 26.9013 74.239 27.2V27.264C74.239 27.52 74.239 27.6907 74.239 27.776C74.239 27.8613 74.239 28.0107 74.239 28.224C74.239 28.3947 74.239 28.8427 74.239 29.568V32.832C74.239 33.5147 74.239 33.984 74.239 34.24C74.239 34.4533 74.239 34.6027 74.239 34.688C74.239 34.7307 74.239 34.9013 74.239 35.2V35.264C74.239 35.52 74.2177 35.7973 74.175 36.096C74.175 36.3947 74.1537 36.672 74.111 36.928C74.0683 37.1413 74.0257 37.3547 73.983 37.568C73.3857 40.2133 71.999 42.3893 69.823 44.096C67.6897 45.76 65.1297 46.592 62.143 46.592H49.471ZM52.799 18.112C53.3537 18.112 53.9083 17.8773 54.463 17.408C55.0603 16.896 55.423 15.808 55.551 14.144H56.063C56.191 15.808 56.5323 16.896 57.087 17.408C57.6843 17.8773 58.2603 18.112 58.815 18.112C59.6683 18.112 60.287 17.8133 60.671 17.216C61.0977 16.6187 61.311 15.7867 61.311 14.72V9.792C61.311 8.512 61.0123 7.488 60.415 6.72C59.8177 5.90933 58.7083 5.504 57.087 5.504H54.527C52.9483 5.504 51.839 5.90933 51.199 6.72C50.6017 7.488 50.303 8.512 50.303 9.792V14.72C50.303 15.7867 50.495 16.6187 50.879 17.216C51.3057 17.8133 51.9457 18.112 52.799 18.112ZM90.0335 46.592C87.0468 46.592 84.4655 45.76 82.2895 44.096C80.1562 42.3893 78.7908 40.2133 78.1935 37.568C78.1508 37.3547 78.1082 37.12 78.0655 36.864C78.0228 36.5653 77.9802 36.288 77.9375 36.032C77.9375 35.7333 77.9375 35.4987 77.9375 35.328V35.264C77.9375 34.9653 77.9375 34.7947 77.9375 34.752C77.9375 34.6667 77.9375 34.5173 77.9375 34.304C77.9375 34.048 77.9375 33.5573 77.9375 32.832V29.568C77.9375 28.8427 77.9375 28.3947 77.9375 28.224C77.9375 28.0107 77.9375 27.8613 77.9375 27.776C77.9375 27.6907 77.9375 27.52 77.9375 27.264V27.2C77.9375 26.9013 77.9375 26.7307 77.9375 26.688C77.9375 26.6027 77.9375 26.4533 77.9375 26.24C77.9375 25.984 77.9375 25.5147 77.9375 24.832V11.904C77.9375 9.6 78.4495 7.552 79.4735 5.76C80.5402 3.968 81.9908 2.56 83.8255 1.536C85.6602 0.511997 87.7295 -3.8147e-06 90.0335 -3.8147e-06H103.346C106.503 -3.8147e-06 108.999 0.810664 110.834 2.432C112.711 4.05333 113.65 6.03733 113.65 8.384H103.154C103.154 6.464 101.724 5.504 98.8655 5.504H95.2175C93.8522 5.504 92.7855 5.824 92.0175 6.464C91.2495 7.06133 90.8655 8.17066 90.8655 9.792V13.824C90.8655 15.4027 91.2495 16.512 92.0175 17.152C92.7855 17.792 93.8522 18.112 95.2175 18.112H101.042C101.724 18.112 102.236 17.8987 102.578 17.472C102.962 17.0027 103.154 16.4267 103.154 15.744H97.3935V11.392H113.65V24.832C113.65 25.5147 113.65 25.984 113.65 26.24C113.65 26.4533 113.65 26.6027 113.65 26.688C113.65 26.7307 113.65 26.9013 113.65 27.2V27.264C113.65 27.52 113.65 27.6907 113.65 27.776C113.65 27.8613 113.65 28.0107 113.65 28.224C113.65 28.3947 113.65 28.8427 113.65 29.568V46.208H107.89V38.976C107.89 37.8667 107.612 36.9707 107.058 36.288C106.503 35.5627 105.543 35.2 104.178 35.2V39.04C104.178 40.3627 103.9 41.6 103.346 42.752C102.791 43.904 101.874 44.8427 100.594 45.568C99.3562 46.2507 97.6282 46.592 95.4095 46.592H90.0335ZM129.471 46.592C126.484 46.592 123.903 45.76 121.727 44.096C119.594 42.3893 118.228 40.2133 117.631 37.568C117.588 37.3547 117.546 37.12 117.503 36.864C117.46 36.5653 117.418 36.288 117.375 36.032C117.375 35.7333 117.375 35.4987 117.375 35.328V35.264C117.375 34.9653 117.375 34.7947 117.375 34.752C117.375 34.6667 117.375 34.5173 117.375 34.304C117.375 34.048 117.375 33.5573 117.375 32.832V29.568C117.375 28.8427 117.375 28.3947 117.375 28.224C117.375 28.0107 117.375 27.8613 117.375 27.776C117.375 27.6907 117.375 27.52 117.375 27.264V27.2C117.375 26.9013 117.375 26.7307 117.375 26.688C117.375 26.6027 117.375 26.4533 117.375 26.24C117.375 25.984 117.375 25.5147 117.375 24.832V11.904C117.375 9.64266 117.887 7.616 118.911 5.824C119.978 4.032 121.428 2.624 123.263 1.6C125.098 0.53333 127.167 -3.8147e-06 129.471 -3.8147e-06H142.143C144.49 -3.8147e-06 146.559 0.511997 148.351 1.536C150.186 2.56 151.615 3.968 152.639 5.76C153.706 7.552 154.239 9.6 154.239 11.904V24.832C154.239 25.5147 154.239 25.984 154.239 26.24C154.239 26.4533 154.239 26.6027 154.239 26.688C154.239 26.7307 154.239 26.9013 154.239 27.2V27.264C154.239 27.52 154.239 27.6907 154.239 27.776C154.239 27.8613 154.239 28.0107 154.239 28.224C154.239 28.3947 154.239 28.8427 154.239 29.568V32.832C154.239 33.5147 154.239 33.984 154.239 34.24C154.239 34.4533 154.239 34.6027 154.239 34.688C154.239 34.7307 154.239 34.9013 154.239 35.2V35.264C154.239 35.52 154.218 35.7973 154.175 36.096C154.175 36.3947 154.154 36.672 154.111 36.928C154.068 37.1413 154.026 37.3547 153.983 37.568C153.386 40.2133 151.999 42.3893 149.823 44.096C147.69 45.76 145.13 46.592 142.143 46.592H129.471ZM132.799 18.112C133.354 18.112 133.908 17.8773 134.463 17.408C135.06 16.896 135.423 15.808 135.551 14.144H136.063C136.191 15.808 136.532 16.896 137.087 17.408C137.684 17.8773 138.26 18.112 138.815 18.112C139.668 18.112 140.287 17.8133 140.671 17.216C141.098 16.6187 141.311 15.7867 141.311 14.72V9.792C141.311 8.512 141.012 7.488 140.415 6.72C139.818 5.90933 138.708 5.504 137.087 5.504H134.527C132.948 5.504 131.839 5.90933 131.199 6.72C130.602 7.488 130.303 8.512 130.303 9.792V14.72C130.303 15.7867 130.495 16.6187 130.879 17.216C131.306 17.8133 131.946 18.112 132.799 18.112Z" fill="black"/>
</svg>
