<svg width="18" height="18" viewBox="0 0 18 18" fill="none" xmlns="http://www.w3.org/2000/svg">
<path d="M1 14.3C1 13.2922 1.42143 12.3256 2.17157 11.613C2.92172 10.9004 3.93913 10.5 5 10.5H13C14.0609 10.5 15.0783 10.9004 15.8284 11.613C16.5786 12.3256 17 13.2922 17 14.3C17 14.8039 16.7893 15.2872 16.4142 15.6435C16.0391 15.9998 15.5304 16.2 15 16.2H3C2.46957 16.2 1.96086 15.9998 1.58579 15.6435C1.21071 15.2872 1 14.8039 1 14.3Z" stroke="black" stroke-width="2" stroke-linejoin="round"/>
<path d="M9 6.7C10.6569 6.7 12 5.42401 12 3.85C12 2.27599 10.6569 1 9 1C7.34315 1 6 2.27599 6 3.85C6 5.42401 7.34315 6.7 9 6.7Z" stroke="black" stroke-width="2"/>
</svg>
