<svg width="18" height="17" viewBox="0 0 18 17" fill="none" xmlns="http://www.w3.org/2000/svg">
<path d="M12.5 10.45H11.71L11.43 10.1935C12.444 9.07637 13.0012 7.65008 13 6.175C13 4.9537 12.6188 3.75983 11.9046 2.74436C11.1903 1.72888 10.1752 0.937418 8.98744 0.470047C7.79973 0.00267553 6.49279 -0.11961 5.23192 0.118654C3.97104 0.356917 2.81285 0.945029 1.90381 1.80862C0.994767 2.67221 0.375703 3.77249 0.124899 4.97032C-0.125905 6.16815 0.00281635 7.40974 0.494786 8.53807C0.986756 9.66641 1.81988 10.6308 2.8888 11.3093C3.95772 11.9878 5.21442 12.35 6.5 12.35C8.11 12.35 9.59 11.7895 10.73 10.8585L11 11.1245V11.875L16 16.6155L17.49 15.2L12.5 10.45ZM6.5 10.45C4.01 10.45 2 8.5405 2 6.175C2 3.8095 4.01 1.9 6.5 1.9C8.99 1.9 11 3.8095 11 6.175C11 8.5405 8.99 10.45 6.5 10.45Z" fill="black"/>
</svg>
