<svg xmlns="http://www.w3.org/2000/svg" width="1149" height="357" viewBox="0 0 1149 357" fill="none">
<path d="M36.0294 340V279.25C36.0294 274.15 36.0294 271 36.0294 269.8C36.0294 268.3 36.0294 267.25 36.0294 266.65C36.0294 266.05 36.0294 264.85 36.0294 263.05V262.6C36.0294 260.5 36.0294 259.3 36.0294 259C36.0294 258.4 36.0294 257.35 36.0294 255.85C36.0294 254.05 36.0294 250.75 36.0294 245.95V223C36.0294 217.9 36.0294 214.75 36.0294 213.55C36.0294 212.05 36.0294 211 36.0294 210.4C36.0294 209.8 36.0294 208.6 36.0294 206.8V206.35C36.0294 204.25 36.0294 203.05 36.0294 202.75C36.0294 202.15 36.0294 201.1 36.0294 199.6C36.0294 197.8 36.0294 194.5 36.0294 189.7V144.7C47.4294 144.7 55.3794 142 59.8794 136.6C64.3794 131.2 66.6294 124 66.6294 115V86.2C66.6294 77.2 64.3794 69.55 59.8794 63.25C55.3794 56.95 47.4294 53.8 36.0294 53.8V17.8H167.879V53.8C156.779 53.8 148.979 56.95 144.479 63.25C139.979 69.55 137.729 77.2 137.729 86.2V142.45H198.929C210.329 142.45 218.129 140.2 222.329 135.7C226.829 130.9 229.079 124 229.079 115V95.2H271.829V189.7C271.829 194.5 271.829 197.8 271.829 199.6C271.829 201.1 271.829 202.15 271.829 202.75C271.829 203.05 271.829 204.25 271.829 206.35V206.8C271.829 208.6 271.829 209.8 271.829 210.4C271.829 211 271.829 212.05 271.829 213.55C271.829 214.75 271.829 217.9 271.829 223V245.95C271.829 250.75 271.829 254.05 271.829 255.85C271.829 257.35 271.829 258.4 271.829 259C271.829 259.3 271.829 260.5 271.829 262.6V263.05C271.829 264.85 271.829 266.05 271.829 266.65C271.829 267.25 271.829 268.3 271.829 269.8C271.829 271 271.829 274.15 271.829 279.25V340H36.0294ZM383.872 342.7C362.872 342.7 344.722 336.85 329.422 325.15C314.422 313.15 304.822 297.85 300.622 279.25C300.322 277.75 300.022 276.1 299.722 274.3C299.422 272.2 299.122 270.25 298.822 268.45C298.822 266.35 298.822 264.7 298.822 263.5V263.05C298.822 260.95 298.822 259.75 298.822 259.45C298.822 258.85 298.822 257.8 298.822 256.3C298.822 254.5 298.822 251.05 298.822 245.95V223C298.822 217.9 298.822 214.75 298.822 213.55C298.822 212.05 298.822 211 298.822 210.4C298.822 209.8 298.822 208.6 298.822 206.8V206.35C298.822 204.25 298.822 203.05 298.822 202.75C298.822 202.15 298.822 201.1 298.822 199.6C298.822 197.8 298.822 194.5 298.822 189.7V98.8C298.822 82.9 302.422 68.65 309.622 56.05C317.122 43.45 327.322 33.55 340.222 26.35C353.122 18.85 367.672 15.1 383.872 15.1H472.972C489.472 15.1 504.022 18.7 516.622 25.9C529.522 33.1 539.572 43 546.772 55.6C554.272 68.2 558.022 82.6 558.022 98.8V189.7C558.022 194.5 558.022 197.8 558.022 199.6C558.022 201.1 558.022 202.15 558.022 202.75C558.022 203.05 558.022 204.25 558.022 206.35V206.8C558.022 208.6 558.022 209.8 558.022 210.4C558.022 211 558.022 212.05 558.022 213.55C558.022 214.75 558.022 217.9 558.022 223V245.95C558.022 250.75 558.022 254.05 558.022 255.85C558.022 257.35 558.022 258.4 558.022 259C558.022 259.3 558.022 260.5 558.022 262.6V263.05C558.022 264.85 557.872 266.8 557.572 268.9C557.572 271 557.422 272.95 557.122 274.75C556.822 276.25 556.522 277.75 556.222 279.25C552.022 297.85 542.272 313.15 526.972 325.15C511.972 336.85 493.972 342.7 472.972 342.7H383.872ZM407.272 142.45C411.172 142.45 415.072 140.8 418.972 137.5C423.172 133.9 425.722 126.25 426.622 114.55H430.222C431.122 126.25 433.522 133.9 437.422 137.5C441.622 140.8 445.672 142.45 449.572 142.45C455.572 142.45 459.922 140.35 462.622 136.15C465.622 131.95 467.122 126.1 467.122 118.6V83.95C467.122 74.95 465.022 67.75 460.822 62.35C456.622 56.65 448.822 53.8 437.422 53.8H419.422C408.322 53.8 400.522 56.65 396.022 62.35C391.822 67.75 389.722 74.95 389.722 83.95V118.6C389.722 126.1 391.072 131.95 393.772 136.15C396.772 140.35 401.272 142.45 407.272 142.45ZM669.077 342.7C648.077 342.7 629.927 336.85 614.627 325.15C599.627 313.15 590.027 297.85 585.827 279.25C585.527 277.75 585.227 276.1 584.927 274.3C584.627 272.2 584.327 270.25 584.027 268.45C584.027 266.35 584.027 264.7 584.027 263.5V263.05C584.027 260.95 584.027 259.75 584.027 259.45C584.027 258.85 584.027 257.8 584.027 256.3C584.027 254.5 584.027 251.05 584.027 245.95V223C584.027 217.9 584.027 214.75 584.027 213.55C584.027 212.05 584.027 211 584.027 210.4C584.027 209.8 584.027 208.6 584.027 206.8V206.35C584.027 204.25 584.027 203.05 584.027 202.75C584.027 202.15 584.027 201.1 584.027 199.6C584.027 197.8 584.027 194.5 584.027 189.7V98.8C584.027 82.6 587.627 68.2 594.827 55.6C602.327 43 612.527 33.1 625.427 25.9C638.327 18.7 652.877 15.1 669.077 15.1H762.677C784.877 15.1 802.427 20.8 815.327 32.2C828.527 43.6 835.127 57.55 835.127 74.05H761.327C761.327 60.55 751.277 53.8 731.177 53.8H705.527C695.927 53.8 688.427 56.05 683.027 60.55C677.627 64.75 674.927 72.55 674.927 83.95V112.3C674.927 123.4 677.627 131.2 683.027 135.7C688.427 140.2 695.927 142.45 705.527 142.45H746.477C751.277 142.45 754.877 140.95 757.277 137.95C759.977 134.65 761.327 130.6 761.327 125.8H720.827V95.2H835.127V189.7C835.127 194.5 835.127 197.8 835.127 199.6C835.127 201.1 835.127 202.15 835.127 202.75C835.127 203.05 835.127 204.25 835.127 206.35V206.8C835.127 208.6 835.127 209.8 835.127 210.4C835.127 211 835.127 212.05 835.127 213.55C835.127 214.75 835.127 217.9 835.127 223V340H794.627V289.15C794.627 281.35 792.677 275.05 788.777 270.25C784.877 265.15 778.127 262.6 768.527 262.6V289.6C768.527 298.9 766.577 307.6 762.677 315.7C758.777 323.8 752.327 330.4 743.327 335.5C734.627 340.3 722.477 342.7 706.877 342.7H669.077ZM946.372 342.7C925.372 342.7 907.222 336.85 891.922 325.15C876.922 313.15 867.322 297.85 863.122 279.25C862.822 277.75 862.522 276.1 862.222 274.3C861.922 272.2 861.622 270.25 861.322 268.45C861.322 266.35 861.322 264.7 861.322 263.5V263.05C861.322 260.95 861.322 259.75 861.322 259.45C861.322 258.85 861.322 257.8 861.322 256.3C861.322 254.5 861.322 251.05 861.322 245.95V223C861.322 217.9 861.322 214.75 861.322 213.55C861.322 212.05 861.322 211 861.322 210.4C861.322 209.8 861.322 208.6 861.322 206.8V206.35C861.322 204.25 861.322 203.05 861.322 202.75C861.322 202.15 861.322 201.1 861.322 199.6C861.322 197.8 861.322 194.5 861.322 189.7V98.8C861.322 82.9 864.922 68.65 872.122 56.05C879.622 43.45 889.822 33.55 902.722 26.35C915.622 18.85 930.172 15.1 946.372 15.1H1035.47C1051.97 15.1 1066.52 18.7 1079.12 25.9C1092.02 33.1 1102.07 43 1109.27 55.6C1116.77 68.2 1120.52 82.6 1120.52 98.8V189.7C1120.52 194.5 1120.52 197.8 1120.52 199.6C1120.52 201.1 1120.52 202.15 1120.52 202.75C1120.52 203.05 1120.52 204.25 1120.52 206.35V206.8C1120.52 208.6 1120.52 209.8 1120.52 210.4C1120.52 211 1120.52 212.05 1120.52 213.55C1120.52 214.75 1120.52 217.9 1120.52 223V245.95C1120.52 250.75 1120.52 254.05 1120.52 255.85C1120.52 257.35 1120.52 258.4 1120.52 259C1120.52 259.3 1120.52 260.5 1120.52 262.6V263.05C1120.52 264.85 1120.37 266.8 1120.07 268.9C1120.07 271 1119.92 272.95 1119.62 274.75C1119.32 276.25 1119.02 277.75 1118.72 279.25C1114.52 297.85 1104.77 313.15 1089.47 325.15C1074.47 336.85 1056.47 342.7 1035.47 342.7H946.372ZM969.772 142.45C973.672 142.45 977.572 140.8 981.472 137.5C985.672 133.9 988.222 126.25 989.122 114.55H992.722C993.622 126.25 996.022 133.9 999.922 137.5C1004.12 140.8 1008.17 142.45 1012.07 142.45C1018.07 142.45 1022.42 140.35 1025.12 136.15C1028.12 131.95 1029.62 126.1 1029.62 118.6V83.95C1029.62 74.95 1027.52 67.75 1023.32 62.35C1019.12 56.65 1011.32 53.8 999.922 53.8H981.922C970.822 53.8 963.022 56.65 958.522 62.35C954.322 67.75 952.222 74.95 952.222 83.95V118.6C952.222 126.1 953.572 131.95 956.272 136.15C959.272 140.35 963.772 142.45 969.772 142.45Z" fill="#D40000"/>
</svg>
