<svg xmlns="http://www.w3.org/2000/svg" aria-hidden="true" focusable="false" role="presentation" class="icon icon-snapchat" viewBox="0 0 20 20"><path fill="currentColor" d="M10.027 2.5c-1.65 0-2.98 1.33-2.98 2.98 0 .82.33 1.56.86 2.1-.09.33-.15.68-.15 1.05 0 1.2.97 2.18 2.17 2.18.22 0 .43-.03.63-.09-.15.27-.24.58-.24.92 0 1.11.9 2.01 2.01 2.01.35 0 .67-.09.95-.24-.06.2-.09.41-.09.63 0 1.2.98 2.17 2.18 2.17.37 0 .72-.06 1.05-.15.54.53 1.28.86 2.1.86 1.65 0 2.98-1.33 2.98-2.98 0-.82-.33-1.56-.86-2.1.09-.33.15-.68.15-1.05 0-1.2-.97-2.18-2.17-2.18-.22 0-.43.03-.63.09.15-.27.24-.58.24-.92 0-1.11-.9-2.01-2.01-2.01-.35 0-.67.09-.95.24.06-.2.09-.41.09-.63 0-1.2-.98-2.17-2.18-2.17-.37 0-.72.06-1.05.15-.54-.53-1.28-.86-2.1-.86zM10 5.5c.83 0 1.5.67 1.5 1.5s-.67 1.5-1.5 1.5-1.5-.67-1.5-1.5.67-1.5 1.5-1.5zm0 8c-2.21 0-4-1.79-4-4h1.5c0 1.38 1.12 2.5 2.5 2.5s2.5-1.12 2.5-2.5H14c0 2.21-1.79 4-4 4z"/></svg>
