<svg preserveAspectRatio="none" width="100%" height="100%" overflow="visible" style="display: block;" viewBox="0 0 19.6608 19.3542" fill="none" xmlns="http://www.w3.org/2000/svg">
<path id="Vector" d="M19.5897 14.1579C19.4542 13.7864 19.1931 13.5856 18.8969 13.4249C18.8417 13.3948 18.7915 13.3647 18.7463 13.3446C18.6559 13.2994 18.5655 13.2542 18.4752 13.209C17.5514 12.717 16.8284 12.1045 16.3314 11.3715C16.1908 11.1657 16.0653 10.9448 15.9649 10.7189C15.9197 10.5984 15.9247 10.5281 15.9549 10.4628C15.985 10.4126 16.0251 10.3724 16.0753 10.3373C16.236 10.2319 16.3967 10.1264 16.5071 10.0561C16.7029 9.92561 16.8636 9.8252 16.964 9.75491C17.3405 9.48882 17.6066 9.20767 17.7723 8.89138C18.0083 8.44957 18.0384 7.93245 17.8576 7.46554C17.6066 6.80283 16.9841 6.39617 16.226 6.39617C16.0653 6.39617 15.9097 6.41123 15.749 6.44637C15.7088 6.45641 15.6637 6.46646 15.6235 6.4765C15.6285 6.02465 15.6185 5.5477 15.5783 5.07577C15.4377 3.42401 14.8554 2.56048 14.2529 1.87266C13.8663 1.44089 13.4145 1.0744 12.9074 0.788225C11.9936 0.266089 10.9544 0 9.82477 0C8.69515 0 7.66092 0.266089 6.74718 0.788225C6.24011 1.0744 5.78826 1.44089 5.40168 1.87266C4.79921 2.56048 4.22185 3.42903 4.07625 5.07577C4.03609 5.5477 4.02605 6.02465 4.03107 6.4765C3.9909 6.46646 3.95074 6.45641 3.90556 6.44637C3.74992 6.41123 3.58926 6.39617 3.43362 6.39617C2.67552 6.39617 2.05298 6.80785 1.80195 7.46554C1.62121 7.93245 1.65133 8.44957 1.8873 8.89138C2.05298 9.20767 2.31907 9.48882 2.69561 9.75491C2.79602 9.8252 2.95165 9.92561 3.15247 10.0561C3.25791 10.1264 3.41354 10.2268 3.56918 10.3273C3.62441 10.3624 3.66959 10.4076 3.70473 10.4628C3.73486 10.5281 3.73988 10.5984 3.68967 10.7289C3.58926 10.9498 3.46877 11.1657 3.32819 11.3665C2.8412 12.0794 2.13833 12.6869 1.24467 13.1739C0.772739 13.4249 0.280726 13.5906 0.069863 14.1579C-0.0857737 14.5847 0.0146371 15.0666 0.41126 15.4783C0.556855 15.6289 0.727554 15.7595 0.913314 15.8599C1.2999 16.0707 1.71158 16.2364 2.14335 16.3519C2.23372 16.377 2.31404 16.4121 2.38935 16.4624C2.53495 16.5879 2.51487 16.7786 2.70565 17.0598C2.80104 17.2054 2.92655 17.3309 3.06713 17.4313C3.47379 17.7125 3.93066 17.7275 4.41263 17.7476C4.84942 17.7627 5.34143 17.7828 5.90875 17.9685C6.14472 18.0438 6.3857 18.1944 6.66685 18.3702C7.34462 18.7869 8.2684 19.3542 9.81975 19.3542C11.3711 19.3542 12.2999 18.7818 12.9827 18.3651C13.2638 18.1944 13.5048 18.0438 13.7308 17.9685C14.2931 17.7828 14.7901 17.7627 15.2269 17.7476C15.7088 17.7275 16.1657 17.7125 16.5724 17.4313C16.7431 17.3108 16.8837 17.1602 16.9841 16.9795C17.1246 16.7435 17.1196 16.5778 17.2502 16.4624C17.3204 16.4121 17.4008 16.377 17.4811 16.3569C17.9129 16.2414 18.3346 16.0758 18.7262 15.8599C18.922 15.7545 19.1027 15.6139 19.2533 15.4482L19.2584 15.4432C19.65 15.0415 19.7454 14.5696 19.5897 14.1579ZM18.2141 14.8959C17.3757 15.3578 16.8134 15.3076 16.3816 15.5888C16.0101 15.8247 16.231 16.3368 15.9649 16.5226C15.6335 16.7485 14.6596 16.5075 13.4044 16.9242C12.3652 17.2656 11.7075 18.2547 9.83983 18.2547C7.97219 18.2547 7.32956 17.2707 6.27525 16.9242C5.02012 16.5075 4.04613 16.7535 3.71478 16.5226C3.44869 16.3368 3.66457 15.8247 3.29807 15.5888C2.86128 15.3076 2.304 15.3578 1.46557 14.8959C0.928376 14.5997 1.23463 14.419 1.41035 14.3336C4.45279 12.8626 4.93979 10.5883 4.95987 10.4176C4.98497 10.2118 5.01509 10.0511 4.78917 9.84528C4.57329 9.64446 3.60934 9.04701 3.33823 8.86125C2.89643 8.54998 2.70063 8.24373 2.84622 7.86217C2.94663 7.6011 3.19264 7.50069 3.44869 7.50069C3.52902 7.50069 3.60934 7.51073 3.68967 7.52579C4.17666 7.63122 4.6486 7.87221 4.9197 7.94249C4.95485 7.95254 4.98497 7.95756 5.02012 7.95756C5.16571 7.95756 5.21592 7.88225 5.20588 7.71657C5.17575 7.18439 5.10044 6.15016 5.18579 5.1812C5.30127 3.85075 5.72801 3.18804 6.24011 2.60566C6.48611 2.32451 7.63582 1.10954 9.83983 1.10954C12.0439 1.10954 13.1936 2.31949 13.4396 2.60064C13.9517 3.18302 14.3784 3.84573 14.4939 5.17618C14.5792 6.14514 14.5039 7.17937 14.4688 7.71155C14.4587 7.88727 14.5089 7.95253 14.6545 7.95253C14.6897 7.95253 14.7198 7.94751 14.7549 7.93747C15.0261 7.87221 15.498 7.6262 15.985 7.52077C16.0653 7.50069 16.1456 7.49567 16.226 7.49567C16.482 7.49567 16.728 7.59608 16.8284 7.85714C16.974 8.23871 16.7782 8.54496 16.3364 8.85623C16.0703 9.04199 15.1064 9.63944 14.8855 9.84026C14.6596 10.0461 14.6897 10.2068 14.7148 10.4126C14.7349 10.5833 15.2219 12.8576 18.2643 14.3286C18.445 14.414 18.7463 14.5997 18.2141 14.8959Z" fill="currentColor"/>
</svg>
